<?xml version="1.0" standalone="no"?><!DOCTYPE svg PUBLIC "-//W3C//DTD SVG 1.1//EN" "http://www.w3.org/Graphics/SVG/1.1/DTD/svg11.dtd"><svg t="1623382046873" class="icon" viewBox="0 0 1024 1024" version="1.1" xmlns="http://www.w3.org/2000/svg" p-id="4393" xmlns:xlink="http://www.w3.org/1999/xlink" width="64" height="64"><defs><style type="text/css"></style></defs><path d="M895.108956 191.933357 381.95876 191.933357c-35.147498 0-63.642482 28.493961-63.642482 63.643506 0 35.147498 28.494984 63.642482 63.642482 63.642482l513.150196 0c35.149545 0 63.642482-28.494984 63.642482-63.642482C958.751439 220.427318 930.257477 191.933357 895.108956 191.933357z" p-id="4394"></path><path d="M895.108956 449.806519 381.95876 449.806519c-35.147498 0-63.642482 28.493961-63.642482 63.643506 0 35.148521 28.494984 63.642482 63.642482 63.642482l513.150196 0c35.149545 0 63.642482-28.494984 63.642482-63.642482C958.751439 478.30048 930.257477 449.806519 895.108956 449.806519z" p-id="4395"></path><path d="M893.062344 703.58748 379.912148 703.58748c-35.147498 0-63.642482 28.493961-63.642482 63.642482 0 35.148521 28.494984 63.642482 63.642482 63.642482l513.150196 0c35.149545 0 63.642482-28.494984 63.642482-63.642482C956.704826 732.080417 928.210865 703.58748 893.062344 703.58748z" p-id="4396"></path><path d="M130.647037 257.025864m-61.398372 0a60 60 0 1 0 122.796744 0 60 60 0 1 0-122.796744 0Z" p-id="4397"></path><path d="M124.5072 514.899026m-61.398372 0a60 60 0 1 0 122.796744 0 60 60 0 1 0-122.796744 0Z" p-id="4398"></path><path d="M126.553813 766.632351m-61.398372 0a60 60 0 1 0 122.796744 0 60 60 0 1 0-122.796744 0Z" p-id="4399"></path></svg>